<?xml version="1.0" encoding="UTF-8" standalone="no"?>
<!DOCTYPE svg PUBLIC "-//W3C//DTD SVG 1.1//EN" "http://www.w3.org/Graphics/SVG/1.1/DTD/svg11.dtd">
<svg width="100%" height="100%" viewBox="0 0 2363 2363" version="1.1" xmlns="http://www.w3.org/2000/svg" xmlns:xlink="http://www.w3.org/1999/xlink" xml:space="preserve" xmlns:serif="http://www.serif.com/" style="fill-rule:evenodd;clip-rule:evenodd;stroke-linecap:round;stroke-linejoin:round;stroke-miterlimit:1.5;">
    <g transform="matrix(3,0,0,3,-2362.2,-2362.2)">
        <circle cx="1181.1" cy="1181.1" r="118.11"/>
    </g>
    <g transform="matrix(0.928571,0,0,1,25.3093,0)">
        <path d="M354.331,1181.1L2007.87,1181.1" style="fill:none;"/>
        <g transform="matrix(1.07692,-0,-0,1,-27.2562,0)">
            <circle cx="354.331" cy="1181.1" r="234.375"/>
            <path d="M1811.64,888.134L2202.26,1181.1L1811.64,1474.07L1811.64,888.134Z"/>
            <path d="M354.331,1181.1L1889.76,1181.1" style="fill:none;stroke:black;stroke-width:104.17px;"/>
        </g>
    </g>
    <g transform="matrix(1,0,0,0.908356,0,184.01)">
        <path d="M1181.1,2007.87L1181.1,354.331" style="fill:none;"/>
        <g transform="matrix(1,-0,-0,1.10089,0,-202.575)">
            <rect x="962.352" y="1789.12" width="437.5" height="437.5"/>
            <path d="M1181.1,2007.87L1181.1,505.868" style="fill:none;stroke:black;stroke-width:104.17px;"/>
        </g>
    </g>
    <g transform="matrix(2.80795,0,0,3.02381,-2430.65,-575.588)">
        <path d="M1181.1,260.734C1181.1,312.426 1228.18,354.331 1286.26,354.331C1344.34,354.331 1391.42,312.426 1391.42,260.734C1391.42,312.426 1344.34,354.331 1286.26,354.331C1228.18,354.331 1181.1,312.426 1181.1,260.734Z" style="fill:none;stroke:black;stroke-width:35.7px;stroke-miterlimit:8;"/>
    </g>
</svg>
